<?xml version="1.0" standalone="no"?>
<!DOCTYPE svg PUBLIC "-//W3C//DTD SVG 20010904//EN"
 "http://www.w3.org/TR/2001/REC-SVG-20010904/DTD/svg10.dtd">
<svg version="1.0" xmlns="http://www.w3.org/2000/svg"
 width="700.000000pt" height="700.000000pt" viewBox="0 0 700.000000 700.000000"
 preserveAspectRatio="xMidYMid meet">
<metadata>
Created by potrace 1.14, written by Peter Selinger 2001-2017
</metadata>
<g transform="translate(0.000000,700.000000) scale(0.100000,-0.100000)"
fill="#000000" stroke="none">
<path d="M3299 6875 c-2 -1 -52 -6 -111 -9 -59 -4 -113 -8 -120 -11 -7 -2 -37
-6 -66 -9 -76 -9 -303 -53 -392 -77 -496 -134 -905 -342 -1305 -662 -119 -95
-386 -361 -470 -467 -33 -41 -62 -77 -65 -80 -28 -25 -175 -238 -242 -350
-220 -367 -385 -818 -442 -1205 -4 -23 -8 -50 -10 -60 -4 -22 -16 -116 -23
-180 -8 -77 -10 -540 -3 -600 5 -33 11 -87 15 -120 6 -62 8 -78 20 -155 9 -54
9 -56 30 -150 9 -41 18 -86 21 -100 46 -234 219 -664 369 -915 26 -44 53 -89
59 -100 48 -85 228 -325 337 -448 399 -447 907 -786 1466 -976 67 -22 126 -41
131 -41 8 0 31 52 128 295 13 33 25 66 26 73 2 8 -38 26 -112 51 -760 251
-1385 781 -1748 1483 -113 218 -230 538 -268 731 -4 21 -13 71 -17 92 -1 6
110 10 316 11 l317 1 0 -343 0 -344 619 0 618 0 0 960 c0 528 -4 961 -8 961
-5 1 -13 2 -18 3 -5 0 -18 11 -28 22 -16 19 -163 178 -248 268 -62 66 -214
232 -234 254 -11 13 -73 80 -138 150 -158 170 -240 258 -288 311 -70 77 -96
105 -149 161 -97 105 -92 94 -61 132 15 18 63 70 106 115 l79 81 53 -56 c61
-65 78 -83 202 -218 50 -54 101 -109 115 -124 14 -14 70 -75 125 -135 55 -60
111 -121 125 -135 41 -44 109 -118 230 -250 63 -68 124 -134 135 -146 46 -47
232 -249 252 -273 16 -18 23 -39 23 -71 1 -25 1 -456 1 -957 l0 -913 22 0 c12
0 392 -1 844 -1 l822 0 30 -38 c16 -20 53 -50 83 -66 45 -25 64 -30 123 -30
108 1 180 41 241 135 26 41 29 53 29 130 0 96 -14 136 -71 194 -51 52 -109 79
-179 82 -89 5 -149 -19 -210 -81 l-51 -52 -697 0 c-427 0 -700 3 -703 9 -4 5
-6 407 -6 894 0 834 -1 884 -18 884 -9 0 -39 24 -66 53 -26 28 -102 110 -168
181 -67 70 -127 137 -135 148 -15 23 -19 19 99 118 36 30 72 62 80 70 8 8 44
40 80 70 36 30 67 57 70 60 3 3 35 31 71 63 l66 57 75 0 76 0 83 -92 c46 -50
89 -96 95 -102 6 -6 9 -30 6 -57 -2 -27 3 -70 13 -104 22 -76 96 -153 170
-177 274 -87 482 239 287 449 -51 55 -107 77 -198 79 l-81 2 -50 54 c-28 29
-62 67 -77 83 -58 64 -121 132 -160 173 l-41 43 -1 434 c0 239 0 435 0 436 1
0 30 3 66 6 135 14 418 7 561 -13 21 -3 39 -4 39 -2 0 7 140 352 150 370 8 14
0 18 -53 26 -34 6 -89 14 -122 18 -33 3 -69 8 -80 11 -24 5 -461 13 -466 8z
m-371 -906 c1 -332 -2 -445 -11 -453 -7 -6 -46 -40 -87 -76 -41 -36 -88 -77
-105 -91 -16 -15 -111 -97 -210 -183 l-180 -156 -28 32 c-32 37 -235 256 -372
403 -11 12 -60 66 -110 120 -49 54 -120 130 -157 169 -44 47 -63 75 -57 82 5
6 53 42 106 80 246 176 499 307 783 406 96 34 374 107 407 108 l21 0 0 -441z
m-1825 -899 c34 -36 106 -113 159 -170 53 -58 124 -134 157 -170 33 -36 61
-67 60 -70 0 -3 -86 -124 -192 -270 -148 -203 -198 -264 -213 -263 -58 7 -124
3 -163 -11 -196 -71 -244 -325 -88 -462 172 -151 446 -31 452 197 l1 56 193
267 c106 146 197 268 201 271 4 2 50 -41 101 -97 52 -56 126 -136 165 -178 38
-41 92 -99 119 -128 l48 -52 0 -745 c0 -410 -3 -748 -7 -752 -8 -9 -675 -11
-677 -3 -1 3 -3 156 -4 340 -1 184 -3 337 -4 340 0 3 -211 4 -468 3 -327 -1
-470 1 -474 9 -9 14 -12 85 -13 278 0 200 9 311 40 490 8 47 18 99 20 115 3
17 16 71 29 120 88 339 224 644 420 937 l38 58 19 -22 c10 -12 47 -52 81 -88z"/>
<path d="M4415 6866 c-109 -34 -194 -114 -231 -218 -17 -48 -21 -134 -9 -188
26 -119 136 -231 252 -258 45 -10 136 -7 188 8 l47 13 164 -82 164 -82 0 -275
c0 -212 -3 -274 -12 -275 -7 -1 -188 -2 -403 -4 -214 -1 -395 -3 -400 -4 -7 0
-10 -148 -9 -423 l0 -423 -46 -46 c-60 -59 -83 -109 -88 -190 -7 -111 49 -205
157 -260 33 -17 61 -23 110 -23 112 1 200 53 246 148 55 113 36 225 -52 314
l-53 53 0 290 0 289 275 0 275 0 0 -539 0 -538 -82 -74 c-197 -178 -178 -161
-268 -239 -35 -30 -68 -60 -74 -66 -39 -37 -398 -354 -401 -354 -2 0 -2 6 1
13 4 11 -48 14 -291 14 l-295 0 -36 42 c-119 139 -339 120 -439 -38 -78 -124
-36 -294 93 -375 109 -68 252 -47 341 49 l40 44 338 2 c186 2 347 5 358 7 11
2 114 86 229 186 l209 183 125 -136 c159 -171 189 -204 246 -266 l46 -50 -3
-648 -2 -647 51 0 c57 0 32 22 264 -230 68 -74 141 -153 162 -175 21 -22 38
-44 38 -48 0 -19 -226 -221 -355 -318 -252 -189 -525 -334 -825 -437 l-115
-39 -40 42 c-22 23 -87 93 -145 156 -57 63 -111 121 -120 130 -25 26 -215 231
-254 274 -24 27 -35 48 -34 65 l3 25 -412 3 -413 2 0 35 c-1 19 -1 114 -1 210
0 96 0 204 1 240 l0 65 598 0 599 0 49 -53 c27 -29 98 -106 158 -170 l109
-118 1 -72 c2 -116 51 -193 159 -249 62 -32 164 -30 232 4 103 53 154 139 151
252 -4 107 -54 188 -147 237 -35 19 -60 23 -123 24 l-80 0 -48 51 c-26 28 -56
60 -65 71 -10 11 -63 69 -118 128 -55 59 -101 117 -102 129 0 11 -1 26 -2 31
-1 7 -278 10 -813 9 -447 -1 -819 -2 -826 -3 -10 -1 -12 -40 -12 -173 1 -95 1
-187 1 -204 l-1 -32 -218 0 -219 -1 -56 54 c-42 41 -70 58 -112 70 -227 66
-426 -161 -328 -375 29 -63 85 -116 149 -140 109 -40 207 -18 291 66 l55 54
219 -1 219 -1 1 -72 c0 -39 0 -131 0 -203 0 -73 3 -134 7 -134 4 -1 213 -2
465 -3 l459 -1 25 -30 c14 -17 53 -59 87 -95 33 -36 106 -115 161 -174 55 -60
117 -127 138 -149 44 -47 41 -51 -43 -62 -30 -4 -64 -9 -75 -11 -20 -4 -118
-14 -190 -20 -58 -5 -376 -5 -400 0 -11 2 -56 7 -100 10 -44 4 -87 9 -96 12
-13 4 -32 -34 -93 -186 -42 -104 -76 -194 -76 -199 0 -8 21 -12 145 -27 22 -3
51 -8 65 -10 42 -8 248 -18 370 -18 425 0 880 90 1279 254 881 362 1576 1074
1910 1955 40 105 60 163 62 180 1 6 5 17 10 27 27 51 111 440 125 578 3 30 7
60 9 67 7 20 19 260 19 368 0 98 -11 326 -18 375 -2 14 -7 50 -11 80 -18 144
-64 361 -109 512 -132 442 -326 809 -630 1193 -81 101 -339 367 -431 443 -253
209 -539 393 -780 502 -77 35 -95 47 -95 64 0 36 -48 120 -93 165 -84 84 -224
120 -332 87z m966 -1080 c246 -197 491 -471 654 -731 44 -70 53 -91 41 -95 -8
-3 -101 -5 -206 -4 l-190 1 -1 -36 c0 -20 -1 -274 -1 -564 l-1 -529 -51 -51
c-170 -171 -69 -443 173 -464 189 -17 338 178 275 359 -13 35 -36 70 -70 105
l-51 52 -1 420 c0 279 3 423 10 427 8 5 160 8 257 5 19 -1 35 -32 93 -186 62
-167 130 -421 153 -575 13 -86 14 -95 20 -165 4 -38 8 -86 11 -105 5 -46 5
-365 0 -410 -3 -19 -7 -64 -11 -100 -33 -356 -141 -722 -310 -1054 -91 -178
-220 -379 -321 -501 l-24 -30 -48 51 c-93 99 -269 290 -324 350 l-55 61 1 234
1 234 88 0 c80 1 89 -1 102 -22 26 -39 59 -65 115 -90 46 -21 66 -24 120 -21
241 17 346 294 176 463 -86 86 -201 104 -313 50 -29 -15 -68 -44 -86 -66 l-34
-39 -85 0 -85 0 1 221 1 221 -25 27 c-14 15 -77 83 -140 152 -63 68 -138 149
-166 179 -28 30 -74 80 -103 110 l-51 55 33 30 c122 111 108 104 215 107 l97
3 0 1003 c0 551 2 1002 6 1002 3 0 52 -38 110 -84z"/>
</g>
</svg>
