<svg width="205" height="275" viewBox="0 0 205 275" fill="none" xmlns="http://www.w3.org/2000/svg">
<path d="M104.531 208.352C96.1304 207.466 77.7911 207.698 73.2595 208.754C73.2595 213.321 73.1651 217.956 73.2851 222.585C73.4103 227.344 72.7047 232.162 73.7742 236.735H104.531V208.352ZM205.368 38.6809C201.527 37.4849 180.615 37.2932 174.541 38.4436C173.739 46.3859 173.958 62.282 174.951 66.6743H205.368V38.6809ZM39.2819 204.087C44.5977 204.087 49.4329 204.102 54.268 204.082C59.2592 204.06 64.2514 204.005 69.2287 203.964V174.158H39.2819V204.087ZM73.5174 203.665C81.8233 204.464 100.05 204.267 104.483 203.368C105.308 192.809 105.014 178.198 103.902 174.128H73.5174V203.665ZM209.888 70.8917C208.954 79.8509 209.23 97.6487 210.365 101.992C215.14 101.992 219.989 102.097 224.816 101.962C229.782 101.825 234.801 102.566 239.575 101.493V70.8917H209.888ZM205.251 101.711C206.185 91.6663 205.888 74.9153 204.805 70.9977H174.38V101.711H205.251ZM108.946 104.779C107.883 117.318 108.299 165.758 109.451 169.954C126.209 170.752 165.044 170.409 170.033 169.419C171.039 157.642 170.626 109.019 169.475 104.779H108.946ZM174.14 104.765V111.254C174.14 129.663 174.141 148.071 174.139 166.48C174.139 167.896 174.184 169.315 174.1 170.726C173.991 172.599 172.962 173.712 171.055 173.824C169.641 173.908 168.219 173.865 166.803 173.865C149.176 173.868 131.549 173.858 113.923 173.882C112.189 173.885 110.456 174.099 108.849 174.208V203.623C117.497 204.558 201.049 204.273 205.41 203.325C206.513 185.826 205.994 109.193 204.731 104.765H174.14ZM170.259 71.0834C158.808 70.0685 77.769 70.4541 73.5206 71.4764V169.59C80.133 170.451 99.7389 170.334 104.788 169.369V136.167C104.788 130.503 104.695 124.838 104.815 119.177C104.933 113.59 104.288 107.964 105.276 101.992H137.682C143.151 101.992 148.624 102.101 154.091 101.96C159.466 101.823 164.896 102.584 170.259 101.486V71.0834ZM108.662 236.735C109.923 236.869 110.699 237.027 111.476 237.026C153.865 236.989 196.253 236.94 238.642 236.882C238.822 236.881 239.013 236.751 239.162 236.639C239.321 236.523 239.448 236.356 239.639 236.169V104.948H209.431V111.808C209.431 141.376 209.442 170.944 209.431 200.511C209.431 205.421 206.977 207.88 202.068 207.888C173.065 207.892 144.061 207.87 115.056 207.928C112.939 207.932 110.635 207.218 108.662 208.667V236.735ZM69.4919 169.886V162.885C69.4919 133.926 69.4919 104.968 69.4929 76.0107C69.4929 74.5932 69.3995 73.1683 69.5173 71.7604C69.773 68.6797 71.3783 67.1488 74.5604 66.9253C75.9727 66.8268 77.3977 66.9063 78.8184 66.9063H170.36C170.386 56.9078 170.385 47.5025 170.364 37.7508C167.898 37.7508 166.101 37.7498 164.303 37.7519C122.931 37.8028 81.5591 37.8536 40.1881 37.9161C40.0204 37.9172 39.8421 38.0856 39.6883 38.2032C39.5269 38.324 39.3901 38.4777 39.32 38.5423V169.886H69.4919ZM243.661 240.799C237.188 240.799 231.533 240.798 225.867 240.798H141.893C136.417 240.798 130.937 240.69 125.464 240.827C119.877 240.968 114.24 240.221 108.864 241.248V270.78C109.931 270.892 110.71 271.045 111.488 271.044C165.644 271.007 219.798 270.957 273.953 270.897C274.123 270.896 274.314 270.751 274.462 270.639C274.632 270.523 274.77 270.366 274.887 270.255V104.642C266.749 104.642 258.886 104.684 251.024 104.63C243.597 104.579 243.639 104.354 243.65 111.896C243.682 152.403 243.661 192.909 243.661 233.414L243.661 240.799ZM35.2659 170.023V130.683C35.2659 124.203 35.2648 117.723 35.2648 111.244C35.2648 104.967 35.2659 98.69 35.2659 92.4132V72.9745C35.2659 66.4952 35.1692 60.0149 35.2923 53.5368C35.4133 47.1413 34.7332 40.7065 35.6744 34.5388C36.2643 34.2856 36.4382 34.1914 36.6229 34.1362C36.816 34.079 37.0198 34.0505 37.2203 34.024C37.4208 34.0007 37.6235 33.9836 37.825 33.9836C80.8184 33.9785 123.812 33.9742 166.804 33.9679C167.21 33.9679 167.617 33.9773 168.021 33.9551C168.425 33.935 168.831 33.9021 169.229 33.8322C169.41 33.8004 169.587 33.686 169.74 33.5747C169.902 33.4561 170.035 33.2982 170.08 33.2537V4.22971C161.465 3.27306 8.42046 3.56863 3.76351 4.58353C3.76351 58.357 3.76351 112.198 3.77096 166.039C3.77096 167.046 3.85793 168.056 3.93863 169.062C3.95242 169.23 4.12961 169.396 4.25479 169.541C4.38528 169.694 4.5455 169.82 4.76199 170.023H35.2659ZM278.728 101.992V274.373C277.009 274.508 275.449 274.738 273.9 274.739C219.745 274.758 165.587 274.754 111.432 274.754C110.62 274.754 109.806 274.791 108.997 274.746C105.541 274.55 104.889 273.949 104.81 270.304C104.711 265.85 104.785 261.393 104.785 256.937V240.884H70.1051C68.8679 235.145 69.6743 229.708 69.5236 224.331C69.3772 219.095 69.4918 213.851 69.4918 207.971C58.1111 207.757 47.0486 208.012 35.373 207.814C35.1236 196.421 35.3751 185.384 35.2128 173.955H1.21174C0.703506 173.403 0.546459 173.267 0.433968 173.101C0.325752 172.942 0.188848 172.754 0.188848 172.578C0.114628 116.284 0.0520074 59.9907 5.84389e-06 3.69794C-0.00103398 2.71272 0.136908 1.72736 0.238779 0.380889C1.94277 0.251696 3.49826 0.0302743 5.05374 0.0292679C59.2092 0.0111947 113.365 0.0143961 167.521 0.0143961C168.332 0.0143961 169.147 -0.0236538 169.954 0.0239658C173.393 0.223152 174.054 0.834388 174.12 4.48395C174.211 9.54469 174.143 14.6085 174.143 19.6724V33.8958H208.837C210.047 39.6419 209.262 45.0765 209.399 50.4572C209.548 55.6926 209.431 60.9345 209.431 66.7124C215.384 67.1076 221.007 66.8459 226.61 66.8957C232.042 66.9433 237.485 66.9063 243.427 66.9063C243.968 78.6306 243.438 89.9152 243.767 101.521C249.602 102.46 255.438 101.864 261.231 101.969C266.876 102.073 272.531 101.992 278.728 101.992Z" fill="#E5951A" fill-opacity="0.4"/>
</svg>
