<svg width="58" height="58" viewBox="0 0 58 58" fill="none" xmlns="http://www.w3.org/2000/svg">
<circle cx="29" cy="29" r="29" fill="#05275A"/>
<path fill-rule="evenodd" clip-rule="evenodd" d="M30.4328 32.3457C30.3994 32.1724 30.3326 31.9995 30.2658 31.8269C29.9653 30.8951 29.6314 29.8083 29.0304 29.006C28.2292 27.954 27.3278 27.5474 26.4263 27.5564C25.1576 27.5701 23.8557 28.5059 23.0544 29.7883C22.2531 31.059 21.9191 32.6502 22.4199 33.9319C22.7538 34.8103 23.4883 35.5599 24.757 35.9685C26.1926 36.4399 27.5615 36.0543 28.7634 35.2233C29.2308 34.9115 29.6314 34.5362 30.032 34.1229C30.1322 34.6668 30.2325 35.216 30.3327 35.7729C30.5997 37.5961 30.6666 39.5125 30.5664 41.3505C30.4663 43.7817 29.9653 46.1074 29.0304 48.3544C28.9637 48.562 29.0639 48.7998 29.2642 48.8852C29.4645 48.9704 29.6981 48.8715 29.7983 48.6639C30.7665 46.3284 31.3009 43.9113 31.4011 41.3845C31.4679 39.4932 31.4342 37.5213 31.1337 35.645C31.0002 34.8678 30.8667 34.1049 30.6998 33.3507C31.4677 32.3611 32.0687 31.2617 32.436 30.3268C34.773 24.0731 31.735 15.652 28.7302 9.98522C28.63 9.7869 28.3961 9.71145 28.1958 9.81628C27.9954 9.92145 27.9287 10.1675 28.0288 10.3658C30.9335 15.8506 33.9384 23.987 31.6681 30.0397C31.401 30.7515 30.9669 31.5685 30.4328 32.3457ZM29.7983 33.155C29.7315 32.7978 29.6315 32.4429 29.498 32.089C29.1975 31.2349 28.9305 30.2313 28.3963 29.4965C27.7953 28.7022 27.1273 28.3627 26.4596 28.3693C25.3912 28.3804 24.3897 29.185 23.7554 30.2223C23.0876 31.271 22.7537 32.5778 23.1877 33.6358C23.4548 34.3169 24.0225 34.8788 24.9908 35.1956C26.1927 35.5839 27.3276 35.2394 28.2959 34.5546C28.8634 34.1736 29.3642 33.6882 29.7983 33.155Z" fill="white"/>
<path fill-rule="evenodd" clip-rule="evenodd" d="M28.33 9.92328C28.497 10.0411 28.6639 10.2174 28.8308 10.394C29.1647 10.7336 29.4653 11.0935 29.7324 11.2831C31.3349 12.451 33.2713 13.8315 35.1743 14.4439C35.3747 14.513 35.6084 14.3958 35.6751 14.1821C35.7419 13.9688 35.6418 13.7394 35.4081 13.6703C33.6052 13.0827 31.7688 11.7455 30.1996 10.6247C29.9325 10.4197 29.5654 9.98571 29.2316 9.63782C28.9311 9.34268 28.6305 9.10731 28.33 9.02184C28.1631 8.96174 27.8626 9.02851 27.6623 9.40445C27.3952 9.9373 27.1613 11.417 27.1279 11.5602C26.7941 13.0112 26.4603 14.2879 25.1916 15.2041C25.0246 15.336 24.9913 15.5907 25.0915 15.772C25.225 15.9533 25.4922 15.9933 25.6591 15.8611C27.0947 14.8168 27.5621 13.3868 27.9293 11.7328C27.9293 11.6273 28.0629 10.7429 28.2632 10.1283C28.2966 10.0618 28.2967 9.98872 28.33 9.92328Z" fill="white"/>
</svg>
