<svg width="425" height="298" viewBox="0 0 425 298" fill="none" xmlns="http://www.w3.org/2000/svg">
<path d="M2 295.065C2.39941 293.997 6.22902 285.165 7.69408 281.926C11.614 273.259 16.069 264.814 20.4817 256.391C27.5941 242.812 48.9353 195.901 54.4712 182.624C55.5019 184.95 58.3371 190.202 60.4203 193.907C64.5691 201.285 68.9761 208.511 73.208 215.842C85.1983 236.618 92.4463 259.715 103.154 281.097C103.557 281.903 101.785 283.979 102.661 283.759C103.853 283.462 106.608 273.35 106.971 272.463C111.789 260.685 116.801 249.009 121.398 237.14C133.904 204.846 146.253 172.538 158.931 140.316C158.256 139.461 160.997 143.48 161.154 143.73C162.742 146.267 164.364 148.775 165.995 151.282C170.586 158.332 175.642 165.039 180.47 171.926C181.102 172.829 181.359 169.911 181.821 168.911C182.93 166.51 183.967 164.08 185.086 161.684C187.884 155.698 190.622 149.643 193.03 143.484C200.807 123.608 203.66 101.126 213.217 82.0402C213.224 82.0271 216.367 86.2931 216.558 86.5959C218.681 89.9595 220.857 93.3029 222.924 96.7015C228.812 106.378 233.104 116.815 237.942 127.015C236.932 127.809 240.772 134.249 241.141 135.032C244.866 142.95 248.449 155.936 254.77 162.246C256.338 161.959 259.357 155.949 260.159 154.877C266.971 145.77 273.703 136.617 280.407 127.429C305.929 92.4543 329.854 56.5571 352.755 19.9701C352.755 25.728 358.967 34.1147 361.4 39.0197C367.446 51.2096 372.756 65.7632 380.714 76.8877C378.666 78.3111 385.031 67.2114 385.274 66.7981C388.561 61.2075 391.949 55.6489 395.398 50.1587C405.232 34.5033 416.863 18.9653 424.602 2.10474" stroke="#E5951A" stroke-width="4" stroke-miterlimit="1.5" stroke-linecap="round" stroke-linejoin="round"/>
</svg>
