<svg width="677" height="787" viewBox="0 0 677 787" fill="none" xmlns="http://www.w3.org/2000/svg">
<path fill-rule="evenodd" clip-rule="evenodd" d="M327.679 345.642C308.91 380.487 271.418 394.654 236.595 375.037C235.436 374.383 233.966 374.792 233.312 375.935C232.657 377.098 233.066 378.568 234.226 379.221C271.55 400.268 311.805 385.264 331.923 347.928C332.553 346.764 332.113 345.294 330.942 344.662C329.77 344.049 328.308 344.478 327.679 345.642Z" fill="#E5951A"/>
<path d="M265.899 360.092C269.776 360.092 272.919 356.954 272.919 353.083C272.919 349.212 269.776 346.074 265.899 346.074C262.022 346.074 258.879 349.212 258.879 353.083C258.879 356.954 262.022 360.092 265.899 360.092Z" fill="#E5951A"/>
<path d="M294.96 352.636C298.762 352.636 301.843 349.56 301.843 345.764C301.843 341.969 298.762 338.892 294.96 338.892C291.159 338.892 288.078 341.969 288.078 345.764C288.078 349.56 291.159 352.636 294.96 352.636Z" fill="#E5951A"/>
<path d="M42.8974 39.5409C40.0114 46.7141 31.8568 50.1895 24.6836 47.3034C17.5469 44.4321 14.1944 35.8667 17.0954 28.6564C17.7284 27.0829 18.2829 25.7072 18.8733 24.5623C19.4658 23.4134 20.0489 22.5909 20.6919 22.0715C21.2993 21.5808 21.997 21.3294 22.9334 21.3914C23.9127 21.4563 25.1928 21.8682 26.9005 22.8195C31.0294 25.1195 35.3753 27.1115 40.0256 28.2835C42.4639 28.8981 43.9232 29.5511 44.7571 30.2102C45.5263 30.8181 45.7543 31.4177 45.7457 32.108C45.7359 32.8996 45.4123 33.8723 44.8488 35.1613C44.659 35.5955 44.4385 36.0723 44.2037 36.5802C43.7833 37.4896 43.3168 38.4986 42.8974 39.5409Z" stroke="#E5951A" stroke-width="2"/>
<line x1="30.6435" y1="32.4904" x2="24.6713" y2="47.3341" stroke="#E5951A" stroke-width="2"/>
<line x1="43.2584" y1="38.6437" x2="52.5356" y2="42.3763" stroke="#E5951A" stroke-width="2"/>
<line x1="8.00474" y1="24.4599" x2="17.282" y2="28.1925" stroke="#E5951A" stroke-width="2"/>
<path d="M39.1959 27.3081L39.1603 27.2938L39.1236 27.2822C34.4855 25.8182 31.2611 24.5411 29.0512 23.4045C26.8234 22.2587 25.7255 21.3047 25.2157 20.5383C24.7538 19.8439 24.7336 19.2432 24.9076 18.5731C25.0015 18.2116 25.1526 17.8342 25.342 17.4068C25.3954 17.2862 25.4538 17.1576 25.5145 17.024C25.6558 16.7128 25.8095 16.3745 25.9413 16.0469C26.4829 14.7009 27.9346 13.6925 30.1495 13.3254C32.344 12.9616 35.1175 13.2714 37.922 14.3997C40.7265 15.5281 42.9418 17.2255 44.2728 19.0077C45.6163 20.8065 45.9651 22.5393 45.4236 23.8853C45.2598 24.2924 45.1116 24.6893 44.9742 25.0573C44.9554 25.1074 44.9369 25.1571 44.9186 25.2061C44.7633 25.6212 44.6221 25.9928 44.4765 26.3305C44.1791 27.0202 43.9074 27.4577 43.5979 27.7277C43.103 28.1596 42.1072 28.4795 39.1959 27.3081Z" stroke="#E5951A" stroke-width="2"/>
<path d="M39.9143 44.2761L40.3098 44.6766C43.6314 48.0406 44.7627 52.9949 43.2303 57.4672V57.4672" stroke="#E5951A" stroke-width="2"/>
<path d="M5.28427 43.8025L5.47571 43.2732C7.08372 38.8276 11.0697 35.6752 15.7662 35.1348V35.1348" stroke="#E5951A" stroke-width="2"/>
<path d="M46.4888 32.1308L50.9635 31.6391C53.7176 31.3365 56.082 29.5433 57.1162 26.9728V26.9728L59.1362 22.1287" stroke="#E5951A" stroke-width="2"/>
<path d="M17.1586 5.35574L15.9536 9.62464C15.173 12.3901 15.5601 15.3547 17.0246 17.827V17.827L19.6427 22.3759" stroke="#E5951A" stroke-width="2"/>
<path d="M37.7913 14.1221L37.7199 14.0842L37.6421 14.0624C36.8232 13.8325 35.9979 13.6911 35.2889 13.5697C35.1833 13.5516 35.0804 13.534 34.9804 13.5166C34.1577 13.3732 33.6082 13.2528 33.285 13.0791C33.1417 13.0021 33.1122 12.9491 33.1084 12.9416C33.1062 12.9374 33.1015 12.9274 33.0994 12.9033C33.0971 12.8768 33.0975 12.827 33.1153 12.747C33.1973 12.3786 33.5569 11.721 34.4919 10.6205C35.297 9.67285 37.0966 8.98736 39.1167 9.80013C41.3129 10.6838 42.8249 12.1092 42.9122 14.0872C42.9443 14.8153 42.9239 15.3717 42.8661 15.7892C42.8075 16.2133 42.7161 16.4485 42.6404 16.5698C42.579 16.6681 42.5392 16.6781 42.5186 16.6832C42.5183 16.6833 42.518 16.6834 42.5177 16.6835C42.4699 16.6955 42.3544 16.7034 42.1313 16.6369C41.6665 16.4984 41.0577 16.1424 40.2782 15.6443C40.1443 15.5587 40.0063 15.4696 39.865 15.3784C39.2234 14.9643 38.5119 14.5049 37.7913 14.1221Z" stroke="#E5951A" stroke-width="1.5"/>
<mask id="path-14-inside-1_130_111" fill="white">
<rect x="473" y="658" width="174" height="129" rx="2"/>
</mask>
<rect x="473" y="658" width="174" height="129" rx="2" stroke="#EDCA97" stroke-width="8" mask="url(#path-14-inside-1_130_111)"/>
<path d="M512 695C512 693.895 511.105 693 510 693C508.895 693 508 693.895 508 695L512 695ZM508 695L508 786L512 786L512 695L508 695Z" fill="#EDCA97"/>
<path d="M510 692C508.895 692 508 692.895 508 694C508 695.105 508.895 696 510 696L510 692ZM678 692L510 692L510 696L678 696L678 692Z" fill="#EDCA97"/>
<path d="M545.5 728C545.5 726.895 544.605 726 543.5 726C542.395 726 541.5 726.895 541.5 728L545.5 728ZM541.5 728L541.5 783L545.5 783L545.5 728L541.5 728Z" fill="#EDCA97"/>
<path d="M544 726C542.895 726 542 726.895 542 728C542 729.105 542.895 730 544 730L544 726ZM677 726L544 726L544 730L677 730L677 726Z" fill="#EDCA97"/>
<path d="M581 763C581 761.895 580.105 761 579 761C577.895 761 577 761.895 577 763L581 763ZM581 783L581 763L577 763L577 783L581 783Z" fill="#EDCA97"/>
</svg>
