<svg width="164" height="56" viewBox="0 0 164 56" fill="none" xmlns="http://www.w3.org/2000/svg">
<path d="M6.41026 46.9004H0V10.3932H6.41026C10.7692 10.3932 14.2564 13.9261 14.2564 18.2783V39.0152C14.2564 41.1145 13.4359 43.1114 11.9487 44.5963C10.4615 46.0811 8.51282 46.9004 6.41026 46.9004ZM4.87179 15.3086V41.9849H6.41026C7.17949 41.9849 7.94872 41.6777 8.51282 41.1145C9.07692 40.5513 9.38461 39.8345 9.38461 39.0152V18.2783C9.38461 16.6398 8.05128 15.3086 6.41026 15.3086H4.87179ZM32.2936 46.6443L26.909 26.4707L26.1397 27.7507V46.798H21.3705V10.2908H26.1397V18.2271L29.3192 10.2908H35.2167L30.3449 20.8384L37.2679 46.6443H32.2936Z" fill="black"/>
<path fill-rule="evenodd" clip-rule="evenodd" d="M81.8198 55.8833C80.2803 55.8833 78.7793 55.7252 77.3077 55.4836L78.5691 52.3453C79.635 52.4893 80.7149 52.5888 81.8198 52.5888C83.3483 52.5888 84.8389 52.4295 86.2892 52.1598L82.6235 48.1953H77.4201H76.3201H75.22V44.9015H71.6148C71.2341 45.5544 70.5325 45.9998 69.7208 45.9998C68.5059 45.9998 67.5201 45.0162 67.5201 43.8025C67.5201 42.5888 68.5053 41.6058 69.7208 41.6058C70.5331 41.6058 71.2347 42.05 71.6148 42.7041H75.22V41.6058V39.4085H77.4201H88.4209V39.8783L91.1197 42.7975C91.3122 42.7426 91.5115 42.7041 91.7205 42.7041C92.9354 42.7041 93.9206 43.6878 93.9206 44.9015C93.9206 46.1139 92.9361 47.097 91.7205 47.097C90.5049 47.097 89.5209 46.1146 89.5209 44.9015C89.5209 44.7209 89.5478 44.5482 89.5882 44.3804L87.0232 41.6058H77.4208V45.9992H84.0206V46.4679L88.7417 51.5728C92.7607 50.3768 96.3286 48.1551 99.1747 45.2298L95.8238 41.6058H95.0213V31.2177L91.6997 27.6279C90.7811 28.4267 89.8045 29.2767 88.8572 30.1011C88.6745 30.2616 88.3115 30.5764 88.3115 30.5764L87.3208 30.5911V30.6222H82.6155C82.2348 31.2763 81.5332 31.7212 80.721 31.7212C79.506 31.7212 78.5208 30.7375 78.5208 29.5238C78.5208 28.3101 79.506 27.3277 80.721 27.3277C81.5332 27.3277 82.2348 27.7719 82.6155 28.4261H87.3208V28.6659L93.9206 22.7939V14.148H89.5216V18.8465C90.1755 19.2267 90.6204 19.9272 90.6204 20.7375C90.6204 21.9506 89.6365 22.9349 88.4209 22.9349C87.2065 22.9349 86.2207 21.9512 86.2207 20.7375C86.2207 19.9266 86.6656 19.2261 87.3208 18.8465V14.148V13.0496V11.9513H93.9206V7.56819C93.0491 7.06478 92.1544 6.59614 91.2187 6.20256C90.8685 6.36366 90.4817 6.46007 90.0704 6.46007C88.5523 6.46007 87.3208 5.23051 87.3208 3.71416C87.3208 2.19843 88.5523 0.968872 90.0704 0.968872C91.4412 0.968872 92.5681 1.97204 92.7766 3.28031C102.505 7.509 109.32 17.1569 109.32 28.4261C109.32 43.5902 97.0088 55.8833 81.8198 55.8833ZM100.52 29.5244C99.3055 29.5244 98.3209 28.542 98.3209 27.3283C98.3209 26.5174 98.7665 25.8169 99.4204 25.4361V16.3453H100.52H101.621H102.764C101.081 13.4585 98.8092 10.9579 96.1214 8.98996V25.1316H94.5678C94.2109 25.4416 93.8039 25.7967 93.359 26.183L97.3467 30.4965L97.1811 30.6228H97.2202V33.9179H98.6259C99.006 33.2637 99.7076 32.8195 100.52 32.8195C101.735 32.8195 102.721 33.8032 102.721 35.0168C102.721 36.2293 101.735 37.2136 100.52 37.2136C99.7076 37.2136 99.006 36.7687 98.6259 36.1152H97.2202V39.8789L100.641 43.5786C103.996 39.4347 106.021 34.1723 106.021 28.4267C106.021 24.8979 105.247 21.5576 103.883 18.542H101.621V25.4361C102.276 25.8175 102.721 26.5174 102.721 27.3283C102.721 28.5414 101.735 29.5244 100.52 29.5244ZM81.8198 4.26335C81.0779 4.26335 80.3457 4.30972 79.6209 4.37501V11.3228L82.3197 14.242C82.5116 14.187 82.7109 14.1486 82.9199 14.1486C84.1349 14.1486 85.1207 15.1322 85.1207 16.3459C85.1207 17.559 84.1355 18.5426 82.9199 18.5426C81.7043 18.5426 80.7204 17.559 80.7204 16.3459C80.7204 16.1659 80.7472 15.9926 80.7882 15.8254L79.2389 14.1486H78.0667L74.1859 17.5267L77.1561 20.7382H77.4195V21.0237L77.4305 21.0359L77.4195 21.0457V35.0175H88.7264C89.1066 34.3627 89.8082 33.9185 90.6204 33.9185C91.8354 33.9185 92.8212 34.9021 92.8212 36.1158C92.8212 37.3295 91.836 38.3119 90.6204 38.3119C89.8082 38.3119 89.1066 37.8671 88.7264 37.2142H77.4208H76.3207H75.2206V21.8823L65.1311 10.9701C64.5199 11.5516 63.9442 12.1679 63.396 12.8098L72.7571 22.9349H73.0205V23.2198L73.0315 23.232L73.0205 23.2418V36.1152V38.3113H70.8209H65.3206H64.2217H63.1216V32.8201H58.0326C59.7096 41.9091 66.4805 49.2083 75.2848 51.6729L74.0472 54.7538C62.6474 51.4013 54.321 40.8925 54.321 28.4267C54.321 13.262 66.6333 0.969483 81.8204 0.969483C83.3159 0.969483 84.7729 1.12081 86.2036 1.35025L84.9434 4.4879C83.9185 4.3561 82.8814 4.26335 81.8198 4.26335ZM62.024 14.5648C59.253 18.4853 57.62 23.2607 57.62 28.4267C57.62 29.1675 57.6585 29.8985 57.7245 30.6228H65.3199V31.7218V32.8201V36.1152H70.8203V24.079L67.3814 20.3598L64.1844 24.7807C64.2034 24.8954 64.2211 25.0114 64.2211 25.1316C64.2211 26.3447 63.2359 27.3283 62.0209 27.3283C60.806 27.3283 59.8208 26.3447 59.8208 25.1316C59.8208 23.9185 60.806 22.9349 62.0209 22.9349C62.266 22.9349 62.497 22.9843 62.717 23.0581L65.8596 18.7135L62.024 14.5648ZM77.4208 4.68194C73.4501 5.41113 69.8315 7.12152 66.7934 9.52816L72.6947 15.9115L77.4208 11.7975V4.68194Z" fill="black"/>
<path d="M141.779 43.721L138.36 46.9004L135.785 44.1418C134.989 44.6093 134.005 44.7964 132.975 44.7964C129.369 44.7964 126.466 41.8975 126.466 38.2973V16.7898C126.466 13.1896 129.369 10.2908 132.975 10.2908C136.581 10.2908 139.484 13.1896 139.484 16.7898V38.2973C139.484 39.1857 139.297 40.0273 139.016 40.8221L141.779 43.721ZM132.975 40.1676C134.005 40.1676 134.895 39.3727 134.895 38.2973V16.7898C134.895 15.7144 134.005 14.8728 132.975 14.8728C131.945 14.8728 131.102 15.7144 131.102 16.7898V38.2973C131.102 39.3727 131.945 40.1676 132.975 40.1676ZM159.093 44.1885L157.407 32.6399H152.677L151.132 44.1885H146.636L151.694 10.7583H157.735L163.588 44.1885H159.093ZM153.286 28.1981H156.751L154.972 16.0417L153.286 28.1981Z" fill="black"/>
</svg>
