<svg width="204" height="128" viewBox="0 0 204 128" fill="none" xmlns="http://www.w3.org/2000/svg">
<path d="M39 37C39 35.8954 38.1046 35 37 35C35.8954 35 35 35.8954 35 37L39 37ZM35 37L35 128L39 128L39 37L35 37Z" fill="#EDCA97"/>
<path d="M37 34C35.8954 34 35 34.8954 35 36C35 37.1046 35.8954 38 37 38L37 34ZM205 34L37 34L37 38L205 38L205 34Z" fill="#EDCA97"/>
<path d="M72.5 70C72.5 68.8954 71.6046 68 70.5 68C69.3954 68 68.5 68.8954 68.5 70L72.5 70ZM68.5 70L68.5 125L72.5 125L72.5 70L68.5 70Z" fill="#EDCA97"/>
<path d="M71 68C69.8954 68 69 68.8954 69 70C69 71.1046 69.8954 72 71 72L71 68ZM204 68L71 68L71 72L204 72L204 68Z" fill="#EDCA97"/>
<path d="M108 105C108 103.895 107.105 103 106 103C104.895 103 104 103.895 104 105L108 105ZM108 125L108 105L104 105L104 125L108 125Z" fill="#EDCA97"/>
<path d="M106 102C104.895 102 104 102.895 104 104C104 105.105 104.895 106 106 106L106 102ZM204 102L106 102L106 106L204 106L204 102Z" fill="#EDCA97"/>
<path d="M4 2C4 0.895431 3.10457 4.82822e-08 2 0C0.895431 -4.82822e-08 4.82822e-08 0.89543 0 2L4 2ZM0 2L-5.46392e-06 127L3.99999 127L4 2L0 2Z" fill="#EDCA97"/>
<path d="M174 2C174 0.895431 173.105 4.82822e-08 172 0C170.895 -4.82822e-08 170 0.89543 170 2L174 2ZM170 2L170 127L174 127L174 2L170 2Z" fill="#EDCA97"/>
<path d="M2 2L172 2" stroke="#EDCA97" stroke-width="4" stroke-linecap="round"/>
</svg>
