<svg width="100" height="51" viewBox="0 0 100 51" fill="none" xmlns="http://www.w3.org/2000/svg">
<path fill-rule="evenodd" clip-rule="evenodd" d="M94.6785 7.64158C75.9099 42.4872 38.4175 56.6538 3.59528 37.0366C2.43603 36.3834 0.965988 36.7918 0.311743 37.9349C-0.342503 39.0985 0.0664445 40.5682 1.22569 41.2215C38.5504 62.2676 78.8049 47.2639 98.9229 9.92787C99.5526 8.76431 99.1131 7.29434 97.9416 6.66153C96.7701 6.04913 95.3082 6.47802 94.6785 7.64158Z" fill="#E5951A"/>
<path d="M32.8991 22.0921C36.7761 22.0921 39.9191 18.9541 39.9191 15.0831C39.9191 11.2122 36.7761 8.07419 32.8991 8.07419C29.0221 8.07419 25.8793 11.2122 25.8793 15.0831C25.8793 18.9541 29.0221 22.0921 32.8991 22.0921Z" fill="#E5951A"/>
<path d="M61.9605 14.6363C65.7617 14.6363 68.8432 11.5596 68.8432 7.76431C68.8432 3.96901 65.7617 0.892365 61.9605 0.892365C58.1592 0.892365 55.0778 3.96901 55.0778 7.76431C55.0778 11.5596 58.1592 14.6363 61.9605 14.6363Z" fill="#E5951A"/>
</svg>
