<svg width="572" height="30" viewBox="0 0 572 30" fill="none" xmlns="http://www.w3.org/2000/svg">
<path fill-rule="evenodd" clip-rule="evenodd" d="M342.324 13.8279C266.201 14.3421 190.04 16.3823 114.249 20.0289C78.2154 21.763 36.3696 21.5462 1.42143 27.4582C-0.319949 27.7557 0.0116904 28.6482 0.0493826 28.7375C0.124767 28.9202 0.441462 29.528 1.82853 29.5577C1.9793 29.562 3.04215 29.477 3.44922 29.4472C13.7693 28.6822 24.0518 27.7897 34.3794 27.0672C70.0362 24.5638 105.798 22.6725 141.614 21.015C189.151 18.8134 237.095 17.6403 284.761 16.7223C310.851 16.2207 337.567 16.888 363.741 15.851C373.352 15.8212 382.964 15.817 392.575 15.834C432.755 15.9148 472.89 16.7733 513.002 17.9506C525.9 18.3289 535.738 18.7369 548.364 19.0132C553.159 19.1194 560.765 19.1917 566.057 19.2384C566.833 19.2469 568.816 19.2553 569.638 19.2596C569.721 19.2681 569.804 19.2681 569.894 19.2681C570.211 19.2681 570.362 19.2553 570.392 19.2553C572.186 19.1066 572.02 18.1503 571.975 18.0058C571.967 17.9761 571.696 17.1685 570.151 17.1388C569.781 17.1303 567.135 17.1218 566.117 17.1133C560.856 17.0666 553.28 16.9943 548.508 16.8923C535.904 16.6161 526.073 16.208 513.198 15.8298C473.025 14.6525 432.831 13.7897 392.59 13.709C387.675 13.7005 382.753 13.6962 377.838 13.7004C377.672 13.4582 377.303 13.1862 376.488 13.0672C375.727 12.9567 370.277 12.8589 368.173 12.7612C352.607 12.0387 353.066 12.0726 335.939 11.4819C309.999 10.5851 306.049 10.381 279.069 10.0027C230.062 9.3142 181.032 9.36952 132.017 9.43752C107.819 9.47577 81.9092 10.398 57.3414 8.67673C65.4377 8.14121 73.5641 7.7502 81.6755 7.30393C109.372 5.78237 137.09 4.83879 164.9 4.17576C231.607 2.5862 298.42 1.95298 365.105 4.12056C350.91 4.19707 336.723 4.37552 322.528 4.49027C264.746 4.96629 206.406 4.60931 148.745 7.07866C147.712 7.12541 146.936 7.6354 147.011 8.21767C147.086 8.8042 147.999 9.24199 149.031 9.19949C206.617 6.73014 264.874 7.09137 322.581 6.61535C344.02 6.4411 365.452 6.12662 386.891 6.22012C394.249 6.25412 401.606 6.40715 408.964 6.45815C410.419 6.4709 414.165 6.63241 414.701 6.56441C415.884 6.41565 416.14 5.9226 416.216 5.68034C416.253 5.53583 416.374 4.7028 414.565 4.40529C402.217 2.37371 379.428 2.46722 367.427 2.0677C299.921 -0.184887 232.278 0.444121 164.741 2.05068C136.864 2.71796 109.078 3.6658 81.3061 5.19161C71.6042 5.72288 61.8796 6.1819 52.2154 6.88742C50.6549 7.00218 47.1496 7.16796 45.4534 7.34222C44.7448 7.41447 44.2321 7.51641 44.006 7.58866C43.124 7.86917 42.9657 8.27719 42.9657 8.55345C42.9581 8.76596 43.1165 9.51399 44.9634 9.718C73.1043 12.8249 103.725 11.6051 132.025 11.5626C181.009 11.4946 230.002 11.4393 278.979 12.1278C305.891 12.5061 309.826 12.7059 335.713 13.6027C338.268 13.6877 340.432 13.7641 342.324 13.8279Z" fill="#05275A"/>
</svg>
