<svg width="537" height="108" viewBox="0 0 537 108" fill="none" xmlns="http://www.w3.org/2000/svg">
<path d="M524.794 92.8788C528.918 68.7156 535.18 35.3949 528.034 11.8515C405.955 10.1751 284.226 9.03728 162.053 10.6136C115.693 11.2118 65.728 16.2931 19.6205 13.1776C21.3432 34.7744 21.3959 56.3428 22.827 77.9067C23.4131 86.7378 28.7509 96.1733 27.1512 105C163.853 104.391 300.664 97.0208 437.46 99.6471C463.679 100.151 490.179 97.8069 516.391 99.6585C447.265 96.2042 376.586 99.2073 307.307 99.7239C260.99 100.07 214.662 95.9395 168.181 96.1415C124.231 96.3324 80.3264 101.499 36.5024 101.159C25.9236 70.0958 12.1366 38.4789 5.35035 7.01497C33.2826 6.6694 61.1796 4.379 89.0644 4.24392C237.501 3.52468 385.746 4.74034 534 8.28411C533.746 36.133 522.701 63.0127 519.835 90.5778C515.877 61.9253 525.787 33.2317 523.005 4.66835C504.747 2.17534 483.446 3.83494 464.854 3.64844C415.863 3.15649 367.379 2.57472 318.389 3.45646C256.773 4.56515 195.455 6.23197 133.849 7.86449C91.6224 8.98312 44.5377 6.92206 3 12.8279C7.30704 43.1674 12.4197 73.5171 17.3308 103.802" stroke="black" stroke-width="4.09971" stroke-miterlimit="1.5" stroke-linecap="round" stroke-linejoin="round"/>
</svg>
