<svg width="908" height="108" viewBox="0 0 908 108" fill="none" xmlns="http://www.w3.org/2000/svg">
<path d="M889.362 92.8788C896.367 68.7156 907.005 35.3949 894.866 11.8515C687.493 10.1751 480.713 9.03728 273.181 10.6136C194.429 11.2118 109.555 16.2931 31.2329 13.1776C34.1593 34.7744 34.2488 56.3428 36.6797 77.9067C37.6754 86.7378 46.7426 96.1733 44.0252 105C276.237 104.391 508.636 97.0208 741.008 99.6471C785.548 100.151 830.562 97.8069 875.088 99.6585C757.665 96.2042 637.603 99.2073 519.921 99.7239C441.243 100.07 362.547 95.9395 283.59 96.1415C208.932 96.3324 134.353 101.499 59.9099 101.159C41.94 70.0958 18.5202 38.4789 6.99249 7.01497C54.4405 6.6694 101.829 4.379 149.196 4.24392C401.342 3.52468 653.164 4.74034 905 8.28411C904.568 36.133 885.806 63.0127 880.939 90.5778C874.215 61.9253 891.048 33.2317 886.323 4.66835C855.308 2.17534 819.125 3.83494 787.544 3.64844C704.324 3.15649 621.964 2.57472 538.745 3.45646C434.079 4.56515 329.919 6.23197 225.27 7.86449C153.541 8.98312 73.5593 6.92206 3 12.8279C10.3163 43.1674 19.001 73.5171 27.3434 103.802" stroke="black" stroke-width="4.09971" stroke-miterlimit="1.5" stroke-linecap="round" stroke-linejoin="round"/>
</svg>
