<svg width="385" height="108" viewBox="0 0 385 108" fill="none" xmlns="http://www.w3.org/2000/svg">
<path d="M375.429 92.8788C378.373 68.7156 382.842 35.3949 377.742 11.8515C290.608 10.1751 203.724 9.03728 116.524 10.6136C83.4342 11.2118 47.7719 16.2931 14.8628 13.1776C16.0924 34.7744 16.13 56.3428 17.1514 77.9067C17.5698 86.7378 21.3796 96.1733 20.2379 105C117.808 104.391 215.457 97.0208 313.094 99.6471C331.809 100.151 350.723 97.8069 369.432 99.6585C320.093 96.2042 269.646 99.2073 220.198 99.7239C187.14 100.07 154.073 95.9395 120.898 96.1415C89.528 96.3324 58.1916 101.499 26.9123 101.159C19.3617 70.0958 9.52124 38.4789 4.67755 7.01497C24.6141 6.6694 44.5255 4.379 64.4283 4.24392C170.374 3.52468 276.184 4.74034 382 8.28411C381.819 36.133 373.935 63.0127 371.89 90.5778C369.065 61.9253 376.138 33.2317 374.152 4.66835C361.121 2.17534 345.917 3.83494 332.647 3.64844C297.68 3.15649 263.075 2.57472 228.108 3.45646C184.13 4.56515 140.364 6.23197 96.3928 7.86449C66.2541 8.98312 32.6474 6.92206 3 12.8279C6.07414 43.1674 9.72326 73.5171 13.2286 103.802" stroke="black" stroke-width="4.09971" stroke-miterlimit="1.5" stroke-linecap="round" stroke-linejoin="round"/>
</svg>
