<svg width="150" height="14" viewBox="0 0 150 14" fill="none" xmlns="http://www.w3.org/2000/svg">
<path d="M104.076 12.9813C87.0654 9.25577 68.0757 11.2773 50.8643 11.6194C45.9152 11.7179 40.8517 12.3746 35.9074 12.0934C35.2626 12.0568 32.4491 11.9198 31.9213 11.1877C31.8524 11.0924 34.0463 10.7167 35.1122 10.556C37.1846 10.2434 39.2561 10.0129 41.3269 9.68283C46.771 8.81562 52.3102 8.39252 57.8019 8.00273C71.8992 7.00297 97.1183 3.92196 110.896 8.26687C111.579 8.48213 109.468 8.22984 108.754 8.20984C107.581 8.17726 106.409 8.13011 105.236 8.09234C101.409 7.96965 97.5499 7.75143 93.7229 7.78574C81.3896 7.89559 69.0127 7.36781 56.6823 7.84054C52.9722 7.98298 49.2738 8.27872 45.5619 8.39301C43.4119 8.45917 43.5082 8.51521 41.2861 8.43794C40.3227 8.40437 37.6512 8.70133 38.4132 8.09629C39.7552 7.03036 43.9498 7.29698 45.5721 7.07949C52.9794 6.08763 60.3684 4.79236 67.8136 4.09647C86.9035 2.3122 106.338 2.308 125.471 3.05449C133.298 3.35985 141.206 2.17866 149 3.13301C130.089 0.631119 110.433 0.986341 91.4186 1.05867C70.0101 1.14013 48.6258 1.14556 27.2169 1.60768C18.4277 1.79726 9.81588 3.51187 1 3.38672" stroke="#E5951A" stroke-miterlimit="1.5" stroke-linecap="round" stroke-linejoin="round"/>
</svg>
