<svg width="561" height="108" viewBox="0 0 561 108" fill="none" xmlns="http://www.w3.org/2000/svg">
<path d="M548.378 92.8788C552.688 68.7156 559.234 35.3949 551.765 11.8515C424.168 10.1751 296.937 9.03728 169.242 10.6136C120.786 11.2118 68.5631 16.2931 20.3717 13.1776C22.1723 34.7744 22.2273 56.3428 23.7231 77.9067C24.3357 86.7378 29.9148 96.1733 28.2428 105C171.123 104.391 314.118 97.0208 457.096 99.6471C484.501 100.151 512.198 97.8069 539.595 99.6585C467.345 96.2042 393.471 99.2073 321.061 99.7239C272.65 100.07 224.229 95.9395 175.647 96.1415C129.71 96.3324 83.8214 101.499 38.0166 101.159C26.9597 70.0958 12.5496 38.4789 5.45658 7.01497C34.6513 6.6694 63.8092 4.379 92.9544 4.24392C248.1 3.52468 403.045 4.74034 558 8.28411C557.734 36.133 546.19 63.0127 543.195 90.5778C539.058 61.9253 549.415 33.2317 546.508 4.66835C527.425 2.17534 505.161 3.83494 485.729 3.64844C434.524 3.15649 383.848 2.57472 332.644 3.45646C268.243 4.56515 204.153 6.23197 139.763 7.86449C95.628 8.98312 46.4151 6.92206 3 12.8279C7.50171 43.1674 12.8454 73.5171 17.9785 103.802" stroke="black" stroke-width="4.09971" stroke-miterlimit="1.5" stroke-linecap="round" stroke-linejoin="round"/>
</svg>
