<svg width="65" height="62" viewBox="0 0 65 62" fill="none" xmlns="http://www.w3.org/2000/svg">
<path d="M46.3511 29.748C49.3202 36.8872 45.9396 45.0816 38.8004 48.0506C31.6974 51.0046 23.3029 47.2449 20.3184 40.0687C19.6671 38.5026 19.0984 37.1328 18.7171 35.9024C18.3344 34.6676 18.1739 33.6723 18.2685 32.8511C18.3578 32.0754 18.6793 31.4071 19.3906 30.795C20.1346 30.1549 21.3364 29.5515 23.2212 29.0331C27.7782 27.7798 32.2742 26.1546 36.4126 23.7312C38.5825 22.4606 40.0811 21.9036 41.1379 21.7893C42.1125 21.6838 42.6954 21.9516 43.1731 22.45C43.7209 23.0215 44.1719 23.9421 44.6734 25.2565C44.8423 25.6992 45.0192 26.1938 45.2077 26.7207C45.5452 27.664 45.9197 28.7107 46.3511 29.748Z" stroke="#E5951A" stroke-width="2"/>
<line x1="32.6691" y1="33.3079" x2="38.813" y2="48.0813" stroke="#E5951A" stroke-width="2"/>
<line x1="45.9798" y1="28.8552" x2="55.2131" y2="25.0153" stroke="#E5951A" stroke-width="2"/>
<line x1="10.8931" y1="43.447" x2="20.1264" y2="39.6071" stroke="#E5951A" stroke-width="2"/>
<path d="M35.1371 23.6171L35.1017 23.6319L35.0674 23.6493C30.733 25.8559 27.5381 27.2049 25.1652 27.9431C22.7731 28.6872 21.3213 28.7763 20.4205 28.5869C19.6044 28.4154 19.169 28.0011 18.8235 27.4011C18.6371 27.0775 18.4803 26.7024 18.3158 26.2648C18.2694 26.1413 18.2209 26.0086 18.1706 25.8708C18.0533 25.5498 17.9258 25.2008 17.7902 24.8747C17.233 23.5351 17.5618 21.7984 18.8843 19.9841C20.1946 18.1866 22.39 16.4636 25.1812 15.3028C27.9724 14.1419 30.7422 13.8 32.9407 14.1383C35.1597 14.4798 36.623 15.4712 37.1802 16.8108C37.3487 17.216 37.5211 17.603 37.681 17.9617C37.7028 18.0106 37.7244 18.059 37.7457 18.1069C37.9259 18.5118 38.0856 18.8757 38.2185 19.2187C38.4897 19.9191 38.6025 20.4216 38.5711 20.8311C38.5208 21.486 38.0346 22.4121 35.1371 23.6171Z" stroke="#E5951A" stroke-width="2"/>
<path d="M47.5422 35.2163L48.105 35.2248C52.832 35.2961 57.1113 38.037 59.1528 42.301V42.301" stroke="#E5951A" stroke-width="2"/>
<path d="M22.5096 59.1503L22.2752 58.6386C20.3062 54.3406 20.9398 49.2985 23.911 45.6213V45.6213" stroke="#E5951A" stroke-width="2"/>
<path d="M43.7191 21.9456L46.5661 18.4586C48.3185 16.3124 48.7481 13.3762 47.6842 10.8179V10.8179L45.7298 5.9469" stroke="#E5951A" stroke-width="2"/>
<path d="M4.03241 23.4048L6.16491 27.2943C7.54639 29.814 9.90035 31.6572 12.6778 32.3942V32.3942L17.7334 33.8037" stroke="#E5951A" stroke-width="2"/>
<path d="M24.8933 15.1963L24.8159 15.2193L24.7451 15.2583C23.9998 15.6683 23.3121 16.1459 22.7213 16.5562C22.6333 16.6173 22.5475 16.6769 22.464 16.7345C21.7767 17.2089 21.3003 17.5081 20.9481 17.6108C20.7919 17.6563 20.7338 17.6392 20.7258 17.6365C20.7212 17.635 20.7109 17.6312 20.6925 17.6154C20.6722 17.5982 20.6377 17.5624 20.5943 17.4928C20.3946 17.1726 20.1902 16.4516 20.0857 15.0112C19.9958 13.771 20.7989 12.0208 22.8095 11.1846C24.9953 10.2756 27.0729 10.2326 28.5214 11.5823C29.0547 12.0791 29.4301 12.4902 29.6816 12.8286C29.9369 13.1722 30.0366 13.4039 30.0676 13.5435C30.0928 13.6566 30.0713 13.6917 30.0602 13.7098C30.0601 13.7101 30.0599 13.7104 30.0598 13.7106C30.0341 13.7527 29.9573 13.8393 29.7516 13.9482C29.3229 14.1752 28.6391 14.3479 27.734 14.539C27.5786 14.5718 27.4177 14.605 27.253 14.639C26.5051 14.7932 25.6756 14.9643 24.8933 15.1963Z" stroke="#E5951A" stroke-width="1.5"/>
</svg>
